HIERARCHY
ROOT root
{
	OFFSET	0	13.1	24.9
	CHANNELS 6  Xposition Yposition Zposition Xrotation Yrotation Zrotation
	JOINT spine_1
	{
		OFFSET	0	9.99999	0
		CHANNELS 3  Xrotation Yrotation Zrotation
		JOINT spine_2
		{
			OFFSET	0	112	-10
			CHANNELS 3  Xrotation Yrotation Zrotation
			JOINT spine_3
			{
				OFFSET	0	206.5	19.3
				CHANNELS 3  Xrotation Yrotation Zrotation
				JOINT spine_4
				{
					OFFSET	0	110.4	14.6
					CHANNELS 3  Xrotation Yrotation Zrotation
					JOINT neck_1
					{
						OFFSET	0	71.8	-50.3
						CHANNELS 3  Xrotation Yrotation Zrotation
						JOINT neck_2
						{
							OFFSET	0	86.2	-25.8
							CHANNELS 3  Xrotation Yrotation Zrotation
							JOINT head_ee
							{
								OFFSET	0	179.8	-8.7
								CHANNELS 3  Xrotation Yrotation Zrotation
								End Site
								{
									OFFSET	1	0	0
								}
							}
						}
					}
					JOINT left_clavicle
					{
						OFFSET	-43.2	22.4	-70.8
						CHANNELS 3  Xrotation Yrotation Zrotation
						JOINT left_shoulder
						{
							OFFSET	-93.9	-5.79999	48.7
							CHANNELS 3  Xrotation Yrotation Zrotation
							JOINT left_elbow
							{
								OFFSET	-291.4	-30.8	15.2
								CHANNELS 3  Xrotation Yrotation Zrotation
								JOINT left_lowarm_twist
								{
									OFFSET	-110.7	-3.89999	13.6
									CHANNELS 3  Xrotation Yrotation Zrotation
									JOINT left_hand
									{
										OFFSET	-110.7	-3.89999	13.6
										CHANNELS 3  Xrotation Yrotation Zrotation
										JOINT left_ee
										{
											OFFSET	-80.8	-5.10001	12.1
											CHANNELS 3  Xrotation Yrotation Zrotation
											End Site
											{
												OFFSET	1	0	0
											}
										}
									}
								}
							}
						}
					}
					JOINT right_clavicle
					{
						OFFSET	43.2	22.4	-70.8
						CHANNELS 3  Xrotation Yrotation Zrotation
						JOINT right_shoulder
						{
							OFFSET	93.9	-5.79999	48.7
							CHANNELS 3  Xrotation Yrotation Zrotation
							JOINT right_elbow
							{
								OFFSET	291.4	-30.8	15.2
								CHANNELS 3  Xrotation Yrotation Zrotation
								JOINT right_lowarm_twist
								{
									OFFSET	110.7	-3.89999	13.6
									CHANNELS 3  Xrotation Yrotation Zrotation
									JOINT right_hand
									{
										OFFSET	110.7	-3.89999	13.6
										CHANNELS 3  Xrotation Yrotation Zrotation
										JOINT right_ee
										{
											OFFSET	80.8	-5.10001	12.1
											CHANNELS 3  Xrotation Yrotation Zrotation
											End Site
											{
												OFFSET	1	0	0
											}
										}
									}
								}
							}
						}
					}
				}
			}
		}
	}
	JOINT left_hip
	{
		OFFSET	-82.8	-127.5	0.300001
		CHANNELS 3  Xrotation Yrotation Zrotation
		JOINT left_knee
		{
			OFFSET	-28.2	-396.7	2.2
			CHANNELS 3  Xrotation Yrotation Zrotation
			JOINT left_ankle
			{
				OFFSET	-11.7	-411.3	35.4
				CHANNELS 3  Xrotation Yrotation Zrotation
				JOINT left_toes
				{
					OFFSET	0	-60	-88.6
					CHANNELS 3  Xrotation Yrotation Zrotation
					JOINT left_foot_ee
					{
						OFFSET	-22.5	-16.5	-42.2
						CHANNELS 3  Xrotation Yrotation Zrotation
						End Site
						{
							OFFSET	1	0	0
						}
					}
				}
			}
		}
	}
	JOINT right_hip
	{
		OFFSET	82.8	-127.5	0.300001
		CHANNELS 3  Xrotation Yrotation Zrotation
		JOINT right_knee
		{
			OFFSET	28.2	-396.7	2.2
			CHANNELS 3  Xrotation Yrotation Zrotation
			JOINT right_ankle
			{
				OFFSET	11.7	-411.3	35.4
				CHANNELS 3  Xrotation Yrotation Zrotation
				JOINT right_toes
				{
					OFFSET	0	-60	-88.6
					CHANNELS 3  Xrotation Yrotation Zrotation
					JOINT right_foot_ee
					{
						OFFSET	22.5	-16.5	-42.2
						CHANNELS 3  Xrotation Yrotation Zrotation
						End Site
						{
							OFFSET	1	0	0
						}
					}
				}
			}
		}
	}
}
MOTION
Frames: 8
Frame Time: 0.02
2812.76 682.871 -624.412 -164.144 -78.9187 -172.877 2.48825 0.315731 2.6565 2.49217 0.146113 2.6712 2.49831 -0.303164 2.65797 2.48847 0.120262 2.67248 -18.4922 3.43565 -2.91415 -18.5543 8.16903 -1.37014 -0.0 0.0 -0.0 -2.18246 18.7026 -1.09821 2.76977 -34.2505 63.8564 4.08177 -63.6661 2.53472 -32.2572 -2.16785 3.45096 0.906166 4.98567 8.06424 -0.0 0.0 -0.0 7.64427 10.7537 -14.7272 -27.8435 4.1653 -70.5845 0.235396 6.65128 -0.0136786 11.951 -0.265394 1.50081 3.03119 1.10797 -20.2662 0.0 0.0 0.0 -5.54403 -7.91144 17.7737 -22.5925 0.255845 3.43514 41.5779 17.8828 -5.12418 -40.1234 0.0 0.0 -0.0 0.0 -0.0 37.5252 8.23692 6.34436 -1.89501 -0.0733747 -0.28155 14.1304 -18.3071 2.01312 -20.9068 0.0 0.0 0.0 0.0 0.0 
2837.77 684.022 -614.974 -163.478 -80.6204 -172.175 2.57913 0.197031 2.64155 2.58301 0.0286034 2.64873 2.58352 -0.411477 2.61675 2.57396 0.0068034 2.64888 -18.4459 3.91979 -2.08398 -18.5293 8.6584 -0.407539 -0.0 0.0 -0.0 -2.47711 17.5843 -1.74547 0.842248 -34.3576 63.6193 3.71376 -61.4566 2.20805 -30.2421 -1.97814 3.2755 0.989633 4.28902 8.34465 -0.0 0.0 -0.0 7.76095 9.48563 -15.0197 -27.4853 6.07648 -69.6133 0.284372 8.01866 -0.0199319 11.7814 -0.263832 1.47921 3.02228 -0.663821 -20.9131 0.0 0.0 0.0 -5.88223 -7.8801 16.4657 -23.0239 0.247485 3.50082 38.7261 20.1941 -4.91345 -40.1508 0.0 0.0 -0.0 0.0 -0.0 37.7683 8.74849 6.60185 -7.74732 -0.240599 -1.16373 16.1295 -17.1578 2.27234 -19.8122 0.0 0.0 0.0 0.0 0.0 
2854.84 683.268 -609.295 -163.286 -82.2099 -171.564 2.65223 0.0729427 2.45118 2.65557 -0.0831321 2.45085 2.6512 -0.486032 2.40364 2.64315 -0.100441 2.4502 -16.1323 3.88871 -2.5156 -16.1939 8.90044 -0.997671 -0.0 0.0 -0.0 -2.65764 14.7577 -2.54624 -2.30913 -36.0619 63.5821 3.39363 -59.2398 1.92979 -27.8822 -1.76401 3.06175 1.06747 3.8585 8.69402 -0.0 0.0 -0.0 8.13315 8.55796 -15.8357 -27.4096 7.31811 -68.5679 0.301442 8.49316 -0.022383 11.4754 -0.260851 1.44023 2.9413 -3.16064 -21.3012 0.0 0.0 0.0 -7.15573 -8.05977 15.5378 -23.4623 0.238484 3.56749 39.0941 21.9133 -4.99068 -39.8025 0.0 0.0 -0.0 0.0 -0.0 40.1834 9.4747 6.65812 -17.0741 -0.318996 -2.59108 16.0887 -16.4836 2.26257 -18.7811 0.0 0.0 0.0 0.0 0.0 
2868.08 684.934 -604.368 -157.019 -83.1645 -165.416 2.72582 0.012056 2.48271 2.72924 -0.1459 2.47845 2.72201 -0.549558 2.42119 2.71386 -0.160404 2.47755 -16.4946 3.98818 -1.64313 -16.5638 8.58528 -0.11505 -0.0 0.0 -0.0 -2.63783 14.0116 -2.65071 -3.47587 -36.1073 63.7442 3.22336 -57.9294 1.78447 -27.4681 -1.72736 3.02335 1.05013 4.65584 8.89203 -0.0 0.0 -0.0 8.3085 7.96441 -16.2203 -27.148 8.33125 -67.7025 0.316187 8.90209 -0.0246127 11.1975 -0.257962 1.40485 2.93848 -4.12306 -21.643 0.0 0.0 0.0 -6.48327 -8.1998 14.8867 -24.6701 0.211048 3.7508 35.2751 23.4904 -4.64974 -40.1106 0.0 0.0 -0.0 0.0 -0.0 40.8227 9.7374 6.67811 -18.4514 -0.310854 -2.80224 14.1648 -16.7785 2.00837 -19.4017 0.0 0.0 0.0 0.0 0.0 
2899.9 688.363 -602.665 -154.849 -83.8293 -164.067 2.7867 0.0611615 2.52825 2.79025 -0.0997892 2.52702 2.78486 -0.50927 2.47721 2.77632 -0.11178 2.52652 -15.7766 4.12076 -2.56418 -15.8428 9.38267 -0.989826 -0.0 0.0 -0.0 -2.66723 13.0247 -2.8796 -6.18432 -36.7382 64.7249 2.8585 -54.7595 1.48065 -26.6154 -1.65277 2.94345 1.12975 3.83575 9.1013 -0.0 0.0 -0.0 8.45979 7.53419 -16.5482 -28.2382 9.03814 -67.0365 0.314631 8.85897 -0.0243724 10.8951 -0.254625 1.36637 2.94876 -4.54571 -21.8733 0.0 0.0 0.0 -7.46876 -7.34399 15.1315 -26.43 0.164166 4.01681 34.1985 24.0314 -4.55007 -40.1635 0.0 0.0 -0.0 0.0 -0.0 40.4475 11.5209 8.25031 -23.0363 -0.247238 -3.5027 13.1283 -16.6903 1.86803 -19.0616 0.0 0.0 0.0 0.0 0.0 
2931.95 683.865 -595.091 -160.827 -84.5548 -170.75 2.8025 0.120127 2.55754 2.80614 -0.042805 2.56 2.80322 -0.457552 2.51917 2.79437 -0.0540905 2.55978 -13.8257 4.20817 -2.31938 -13.8758 9.4456 -0.890389 -0.0 0.0 -0.0 -2.73215 11.0491 -3.35013 -8.43362 -37.2065 65.3552 2.3202 -48.9681 1.05671 -24.7091 -1.49038 2.7609 1.25593 2.86379 9.56412 -0.0 0.0 -0.0 8.51203 6.71387 -16.6687 -27.6442 10.5461 -66.3434 0.339781 9.55453 -0.0283965 10.5886 -0.251034 1.32738 2.91206 -5.86383 -22.0937 0.0 0.0 0.0 -8.9459 -6.2311 14.8728 -27.9285 0.117819 4.2421 32.1481 24.8043 -4.34621 -40.2395 0.0 0.0 -0.0 0.0 -0.0 39.6736 11.6208 8.70832 -29.5522 -0.0609588 -4.48479 10.4151 -16.3495 1.49462 -18.8946 0.0 0.0 0.0 0.0 0.0 
2957.83 686.941 -589.493 -166.859 -84.6869 -176.855 2.79509 0.170938 2.5955 2.79884 0.00549051 2.60111 2.79808 -0.41676 2.56754 2.78888 -0.00617721 2.60111 -14.3926 3.94456 -2.13984 -14.4418 8.82422 -0.75868 -0.0 0.0 -0.0 -2.89226 9.79395 -3.85795 -10.8982 -39.0423 66.4383 1.93439 -43.7737 0.777166 -23.6533 -1.4031 2.65753 1.47915 2.04373 10.7454 -0.0 0.0 -0.0 8.63351 5.75022 -16.931 -28.1321 13.2079 -65.8078 0.358765 10.0777 -0.031633 9.88388 -0.24199 1.23782 2.90494 -7.79943 -22.7292 0.0 0.0 0.0 -8.36142 -4.30758 14.2045 -29.3965 0.0667069 4.4616 24.428 27.1135 -3.48154 -40.1971 0.0 0.0 -0.0 0.0 -0.0 37.0209 13.1847 8.21663 -31.4083 0.0124477 -4.76017 10.5684 -14.6276 1.50976 -18.8427 0.0 0.0 0.0 0.0 0.0 
2977.35 695.666 -578.377 -172.963 -83.5394 176.736 2.80703 0.520267 2.6648 2.81091 0.349707 2.69248 2.82643 -0.0902361 2.71358 2.81632 0.339297 2.69381 -14.3456 3.5606 -2.247 -14.384 8.15692 -0.988217 -0.0 0.0 -0.0 -2.977 8.67693 -4.21425 -13.1674 -39.8659 66.2672 1.65438 -39.3326 0.591293 -22.201 -1.2862 2.51277 1.52599 1.96384 11.031 -0.0 0.0 -0.0 8.97969 5.28022 -17.6601 -26.5088 15.7066 -64.9973 0.396284 11.1066 -0.0385299 9.49587 -0.23654 1.18856 2.88789 -9.95756 -23.3421 0.0 0.0 0.0 -7.79583 -3.56871 12.8993 -31.1977 -0.00366717 4.72904 21.3024 27.7873 -3.0912 -40.1797 0.0 0.0 -0.0 0.0 -0.0 35.2434 14.0851 7.06125 -31.305 0.00812654 -4.7449 8.04288 -12.6823 1.15457 -20.3348 0.0 0.0 0.0 0.0 0.0 
